<?xml version="1.0" encoding="utf-8"?>
<!-- Generator: Adobe Illustrator 18.1.1, SVG Export Plug-In . SVG Version: 6.00 Build 0)  -->
<svg version="1.1" id="Layer_1" xmlns="http://www.w3.org/2000/svg" xmlns:xlink="http://www.w3.org/1999/xlink" x="0px" y="0px"
	 viewBox="0 0 567 537" enable-background="new 0 0 567 537" xml:space="preserve">
<rect x="-2.8" display="none" fill="#EBF4FD" width="567" height="537"/>
<g>
	<g>
		<path fill="none" stroke="#FFFFFF" stroke-width="5" stroke-miterlimit="10" d="M539.2,272.4c0-2,0.1-4,0.1-6h-6"/>
		
			<line fill="none" stroke="#FFFFFF" stroke-width="5" stroke-miterlimit="10" stroke-dasharray="11.8372,11.8372" x1="521.4" y1="266.4" x2="30.2" y2="266.4"/>
		<path fill="none" stroke="#FFFFFF" stroke-width="5" stroke-miterlimit="10" d="M24.3,266.4h-6c0,2,0,4,0.1,6"/>
		<path fill="none" stroke="#FFFFFF" stroke-width="5" stroke-miterlimit="10" stroke-dasharray="12.0361,12.0361" d="M18.9,284.4
			c9.3,135.5,122.1,242.5,259.9,242.5c139.8,0,253.9-110.2,260.2-248.5"/>
	</g>
</g>
<path fill="#FFFFFF" d="M541.2,267h-521C20.2,123.1,136.8,6.5,280.7,6.5S541.2,123.1,541.2,267z"/>
<path fill="#FFE8A0" d="M488.2,218.1L488.2,218.1c-3,0-5.4-2.4-5.4-5.4l0,0c0-3,2.4-5.4,5.4-5.4l0,0c3,0,5.4,2.4,5.4,5.4l0,0
	C493.6,215.6,491.2,218.1,488.2,218.1z"/>
<path fill="#FFE8A0" d="M172.7,217.2L172.7,217.2c-3,0-5.4-2.4-5.4-5.4v0c0-3,2.4-5.4,5.4-5.4h0c3,0,5.4,2.4,5.4,5.4v0
	C178.1,214.8,175.6,217.2,172.7,217.2z"/>
<path fill="#7FDE95" d="M201.6,251.7c-6.1,3.5-18,11.5-22.1,14.3c-0.9,0.6-1.5,1-1.5,1l-165.5,0.4c7.1-10.9,18.1-18.3,31.4-23.1
	c3.3-1.2,6.7-2.2,10.2-3.1c5.7-1.4,11.6-2.5,17.7-3.2v28h83.8v-24.1C182.2,246.2,201.6,251.7,201.6,251.7z"/>
<polygon fill="#B2D8F7" points="152.7,231.2 152.7,265.7 65.7,265.7 65.7,231.2 80.7,231.2 80.7,251.7 149.3,251.7 149.3,231.2 "/>
<path fill="#B2D8F7" d="M228.3,179.9v33h54.3v-21.1h11.6v21.1h6.5v-33H228.3z M270.1,203.5H245v-11.7h25.1V203.5z"/>
<polygon fill="#F78690" points="298,174.5 263.1,152 225.4,174.5 "/>
<rect x="77.3" y="205.8" fill="#B2D8F7" width="68.2" height="14.2"/>
<path fill="none" d="M135,239h-3.5v-0.4C132.7,238.7,133.8,238.9,135,239L135,239z"/>
<path fill="none" d="M139.4,239.5h-3.3v-0.4C137.3,239.3,138.3,239.4,139.4,239.5z"/>
<path fill="#7FDE95" d="M530.4,267l-38.5-0.3l-29.3-0.3l-13.2-0.1l-32-0.3l-30.3-0.3c0,0-24.8-13.4-27.8-14.6
	c-0.6-0.2,5.2-1.8,15-3.6v0.6h26.1v-4.6c1.6-0.2,3.3-0.4,5-0.6v5.5h10v-6.5c1.7-0.1,3.4-0.3,5.1-0.4v6.9h4v-7.2
	c0.8-0.1,1.6-0.1,2.4-0.2v7.4h4.4v-7.6c1.1,0,2.2-0.1,3.3-0.1v7.8h7.8v-8c2.3,0,4.6-0.1,6.8,0c2.7,0,5.5,0,8.2,0.1
	c3.6,0.1,7.1,0.3,10.7,0.6c4.8,0.4,9.6,0.9,14.2,1.7c0,0,0,0,0,0c3.2,0.5,6.4,1.1,9.4,1.8C508.9,248.4,522.9,255.4,530.4,267z"/>
<path fill="#7FDE95" d="M166.3,265.7c0,0,62.3-67.7,201.5,0"/>
<rect x="91.2" y="232.5" opacity="0.2" fill="none" width="3.3" height="3.3"/>
<rect x="97.8" y="231.2" opacity="0.2" fill="none" width="3.5" height="3.3"/>
<rect x="102.5" y="231.7" opacity="0.2" fill="none" width="3.5" height="3.3"/>
<rect x="131.5" y="231.5" opacity="0.2" fill="none" width="3.5" height="3.3"/>
<rect x="131.5" y="236.5" opacity="0.2" fill="none" width="3.5" height="2.5"/>
<rect x="136.2" y="232" opacity="0.2" fill="none" width="3.5" height="3.3"/>
<rect x="136.2" y="237" opacity="0.2" fill="none" width="3.5" height="2.5"/>
<rect x="91.2" y="266" opacity="0.2" fill="#5C6987" width="59" height="0.8"/>
<line fill="none" stroke="#B2D8F7" stroke-miterlimit="10" x1="212.3" y1="245.4" x2="212.3" y2="157.5"/>
<path fill="none" stroke="#B2D8F7" stroke-miterlimit="10" d="M64.7,166.3H47H37h-8 M29,180.2h8h10h17.7 M33,163.1h4h1.3
	 M59.4,163.1h-5.3 M47,222.8v-4.2v-38.4v-13.9V158 M47,233v4.3v5.2"/>
<path fill="none" stroke="#B2D8F7" stroke-miterlimit="10" d="M48,170.5c0,0,84.1,38.5,164.3,0"/>
<path fill="none" stroke="#B2D8F7" stroke-miterlimit="10" d="M48.6,179.1c0,0,84.1,38.5,164.3,0"/>
<path fill="none" stroke="#B2D8F7" stroke-miterlimit="10" d="M20.5,180.4c9.1-2.6,18.4-5.9,27.5-10.3"/>
<path fill="none" stroke="#B2D8F7" stroke-miterlimit="10" d="M20.5,189.1c9.3-2.6,18.8-6,28.1-10.5"/>
<path fill="none" stroke="#B2D8F7" stroke-miterlimit="10" d="M12.5,182.4c-2,0.5-4,0.9-6,1.3"/>
<path fill="none" stroke="#B2D8F7" stroke-miterlimit="10" d="M12.5,191.1c-2,0.4-4,0.9-6,1.3"/>
<path fill="none" stroke="#B2D8F7" stroke-miterlimit="10" d="M376.2,171c0,0,84.1,38.5,164.3,0"/>
<line fill="none" stroke="#B2D8F7" stroke-miterlimit="10" x1="540.7" y1="157.8" x2="540.7" y2="265.7"/>
<line fill="none" stroke="#B2D8F7" stroke-miterlimit="10" x1="558.4" y1="166.1" x2="522.7" y2="166.1"/>
<line fill="none" stroke="#B2D8F7" stroke-miterlimit="10" x1="522.7" y1="179.9" x2="558.4" y2="179.9"/>
<line fill="none" stroke="#B2D8F7" stroke-miterlimit="10" x1="526.7" y1="162.8" x2="532" y2="162.8"/>
<line fill="none" stroke="#B2D8F7" stroke-miterlimit="10" x1="547.8" y1="162.8" x2="553.1" y2="162.8"/>
<path fill="none" stroke="#B2D8F7" stroke-miterlimit="10" d="M453.4,196.4c26.6,1.2,57.5-2.4,87.7-16.9"/>
<path fill="none" stroke="#B2D8F7" stroke-miterlimit="10" d="M560.3,178.4c-12.4-3.7-19.8-7.1-19.8-7.1"/>
<path fill="none" stroke="#B2D8F7" stroke-miterlimit="10" d="M560.3,186.8c-12.1-3.7-19.2-6.9-19.2-6.9"/>
<line fill="none" stroke="#B2D8F7" stroke-miterlimit="10" x1="376.3" y1="232.7" x2="376.3" y2="157.3"/>
<line fill="none" stroke="#B2D8F7" stroke-miterlimit="10" x1="394" y1="165.6" x2="358.3" y2="165.6"/>
<line fill="none" stroke="#B2D8F7" stroke-miterlimit="10" x1="358.3" y1="179.5" x2="394" y2="179.5"/>
<line fill="none" stroke="#B2D8F7" stroke-miterlimit="10" x1="362.3" y1="162.3" x2="367.6" y2="162.3"/>
<line fill="none" stroke="#B2D8F7" stroke-miterlimit="10" x1="383.4" y1="162.3" x2="388.7" y2="162.3"/>
<path fill="none" stroke="#B2D8F7" stroke-miterlimit="10" d="M376.1,170.5c-24.9,12-50.2,16.5-73.3,17.1"/>
<path fill="none" stroke="#B2D8F7" stroke-miterlimit="10" d="M376.8,179.1c-25.2,12.1-50.7,16.6-73.9,17.1"/>
<path fill="none" stroke="#B2D8F7" stroke-miterlimit="10" d="M445.5,195.9c-39.9-3.2-68.6-16.4-68.6-16.4"/>
<path fill="none" stroke="#B2D8F7" stroke-miterlimit="10" d="M366.2,186.3h6.9v11h-6.9V186.3z M373.1,188.5h-5.6 M368.1,196v-5.4
	 M370.8,196v-5.4"/>
<path fill="none" stroke="#B2D8F7" stroke-miterlimit="10" d="M379.2,186.3h6.9v11h-6.9V186.3z M386.1,188.5h-5.6 M381.1,196v-5.4
	 M383.8,196v-5.4"/>
<path fill="none" stroke="#B2D8F7" stroke-miterlimit="10" d="M231.6,177.6c-12.4-3.7-19.8-7.1-19.8-7.1"/>
<line fill="none" stroke="#B2D8F7" stroke-miterlimit="10" x1="194.3" y1="179.7" x2="230" y2="179.7"/>
<path fill="none" stroke="#B2D8F7" stroke-miterlimit="10" d="M231.6,186c-12.1-3.7-19.2-6.9-19.2-6.9"/>
<path fill="none" stroke="#5C6987" stroke-miterlimit="10" d="M178,266c0,0,62.3-67.7,201.5,0"/>
<line fill="none" stroke="#5C6987" stroke-miterlimit="10" x1="224.9" y1="212.9" x2="311.3" y2="212.9"/>
<line fill="none" stroke="#5C6987" stroke-miterlimit="10" x1="227.6" y1="208" x2="227.6" y2="240.3"/>
<line fill="none" stroke="#5C6987" stroke-miterlimit="10" x1="307.2" y1="208" x2="307.2" y2="240.3"/>
<line fill="none" stroke="#5C6987" stroke-miterlimit="10" x1="280.7" y1="212.9" x2="280.7" y2="235.9"/>
<line fill="none" stroke="#5C6987" stroke-miterlimit="10" x1="292.3" y1="212.9" x2="292.3" y2="237.8"/>
<line fill="none" stroke="#5C6987" stroke-miterlimit="10" x1="276.9" y1="217" x2="295.8" y2="217"/>
<line fill="none" stroke="#5C6987" stroke-miterlimit="10" x1="276.9" y1="222.7" x2="295.8" y2="222.7"/>
<line fill="none" stroke="#5C6987" stroke-miterlimit="10" x1="276.9" y1="228.3" x2="295.8" y2="228.3"/>
<line fill="none" stroke="#5C6987" stroke-miterlimit="10" x1="276.9" y1="233.5" x2="295.8" y2="233.5"/>
<line fill="none" stroke="#5C6987" stroke-miterlimit="10" x1="271.9" y1="148.3" x2="214.3" y2="186.9"/>
<line fill="none" stroke="#5C6987" stroke-miterlimit="10" x1="261.9" y1="148" x2="319.5" y2="186.6"/>
<polyline fill="none" stroke="#5C6987" stroke-miterlimit="10" points="280.7,211.8 280.7,191.8 292.3,191.8 292.3,211.8 "/>
<line fill="none" stroke="#5C6987" stroke-miterlimit="10" x1="302.9" y1="212.9" x2="302.9" y2="175.3"/>
<line fill="none" stroke="#5C6987" stroke-miterlimit="10" x1="237.9" y1="175.3" x2="302.9" y2="175.3"/>
<rect x="243.1" y="191.8" fill="none" stroke="#5C6987" stroke-miterlimit="10" width="25" height="12.3"/>
<line fill="none" stroke="#5C6987" stroke-miterlimit="10" x1="245.9" y1="195.8" x2="261.9" y2="195.8"/>
<line fill="none" stroke="#5C6987" stroke-miterlimit="10" x1="10.8" y1="266" x2="6.5" y2="266"/>
<line fill="none" stroke="#5C6987" stroke-miterlimit="10" x1="533.1" y1="266" x2="543.9" y2="266"/>
<line fill="none" stroke="#5C6987" stroke-miterlimit="10" x1="548.6" y1="266" x2="554.7" y2="266"/>
<line fill="none" stroke="#5C6987" stroke-miterlimit="10" x1="362" y1="258" x2="362" y2="229.1"/>
<line fill="none" stroke="#5C6987" stroke-miterlimit="10" x1="361.9" y1="232.7" x2="449.3" y2="232.7"/>
<polyline fill="none" stroke="#5C6987" stroke-miterlimit="10" points="442.5,233.6 442.5,237 442.5,240.4 442.5,248.4 434.6,248.4 
	434.6,240.6 434.6,236.9 434.6,233.6 "/>
<line fill="none" stroke="#5C6987" stroke-miterlimit="10" x1="441.1" y1="242.5" x2="438.8" y2="245.4"/>
<polyline fill="none" stroke="#5C6987" stroke-miterlimit="10" points="71.9,228.3 71.9,232.3 71.9,238 71.9,266 "/>
<polyline fill="none" stroke="#5C6987" stroke-miterlimit="10" points="155.7,228.3 155.7,231.7 155.7,241.9 155.7,266 "/>
<polyline fill="none" stroke="#5C6987" stroke-miterlimit="10" points="79.7,229.2 79.7,231.2 79.7,237.3 79.7,251.7 83.8,251.7 
	91.2,251.7 127.3,251.7 132.8,251.7 136.6,251.7 144.5,251.7 148.3,251.7 148.3,240.8 148.3,231.2 148.3,228.3 "/>
<polyline fill="none" stroke="#5C6987" stroke-miterlimit="10" points="83.8,251.3 83.8,244.1 88.9,244.1 88.9,250.9 "/>
<polyline fill="none" stroke="#5C6987" stroke-miterlimit="10" points="90.3,251.3 90.3,245.8 93.6,245.8 93.6,251.3 "/>
<polyline fill="none" stroke="#5C6987" stroke-miterlimit="10" points="144.5,251.7 144.5,245.1 138.5,245.1 138.5,251.3 "/>
<polyline fill="none" stroke="#5C6987" stroke-miterlimit="10" points="136.6,251.7 136.6,247.7 132.8,247.7 132.8,251.7 "/>
<polyline fill="none" stroke="#5C6987" stroke-miterlimit="10" points="131.5,251.3 131.5,245.8 127.3,245.8 127.3,251.7 "/>
<rect x="86.3" y="232" fill="none" stroke="#5C6987" stroke-miterlimit="10" width="3.5" height="3.3"/>
<rect x="86.3" y="237" fill="none" stroke="#5C6987" stroke-miterlimit="10" width="3.5" height="2.5"/>
<line fill="none" stroke="#5C6987" stroke-miterlimit="10" x1="88.1" y1="229.2" x2="88.1" y2="232"/>
<line fill="none" stroke="#5C6987" stroke-miterlimit="10" x1="88.1" y1="235.6" x2="88.1" y2="236.5"/>
<rect x="91" y="232.5" fill="none" stroke="#5C6987" stroke-miterlimit="10" width="3.5" height="3.3"/>
<rect x="91" y="237.4" fill="none" stroke="#5C6987" stroke-miterlimit="10" width="3.5" height="2.5"/>
<line fill="none" stroke="#5C6987" stroke-miterlimit="10" x1="92.8" y1="236.1" x2="92.8" y2="237"/>
<line fill="none" stroke="#5C6987" stroke-miterlimit="10" x1="92.8" y1="229.2" x2="92.8" y2="232"/>
<rect x="131.5" y="231.5" fill="none" stroke="#5C6987" stroke-miterlimit="10" width="3.5" height="3.3"/>
<rect x="131.5" y="236.5" fill="none" stroke="#5C6987" stroke-miterlimit="10" width="3.5" height="2.5"/>
<line fill="none" stroke="#5C6987" stroke-miterlimit="10" x1="133.3" y1="235.2" x2="133.3" y2="236"/>
<rect x="136.2" y="232" fill="none" stroke="#5C6987" stroke-miterlimit="10" width="3.5" height="3.3"/>
<rect x="136.2" y="237" fill="none" stroke="#5C6987" stroke-miterlimit="10" width="3.5" height="2.5"/>
<line fill="none" stroke="#5C6987" stroke-miterlimit="10" x1="137.9" y1="235.7" x2="137.9" y2="236.5"/>
<line fill="none" stroke="#5C6987" stroke-miterlimit="10" x1="133.3" y1="231.5" x2="133.3" y2="229.2"/>
<line fill="none" stroke="#5C6987" stroke-miterlimit="10" x1="137.9" y1="232" x2="137.9" y2="229.5"/>
<rect x="97.8" y="231.2" fill="none" stroke="#5C6987" stroke-miterlimit="10" width="3.5" height="3.3"/>
<line fill="none" stroke="#B2D8F7" stroke-miterlimit="10" x1="230" y1="165.8" x2="194.3" y2="165.8"/>
<line fill="none" stroke="#B2D8F7" stroke-miterlimit="10" x1="198.3" y1="162.5" x2="203.6" y2="162.5"/>
<rect x="97.8" y="236.2" fill="none" stroke="#5C6987" stroke-miterlimit="10" width="3.5" height="2.5"/>
<line fill="none" stroke="#5C6987" stroke-miterlimit="10" x1="99.6" y1="234.8" x2="99.6" y2="235.7"/>
<rect x="102.5" y="231.7" fill="none" stroke="#5C6987" stroke-miterlimit="10" width="3.5" height="3.3"/>
<rect x="102.5" y="236.6" fill="none" stroke="#5C6987" stroke-miterlimit="10" width="3.5" height="2.5"/>
<line fill="none" stroke="#5C6987" stroke-miterlimit="10" x1="104.3" y1="235.3" x2="104.3" y2="236.2"/>
<line fill="none" stroke="#5C6987" stroke-miterlimit="10" x1="99.6" y1="229.2" x2="99.6" y2="231.2"/>
<line fill="none" stroke="#5C6987" stroke-miterlimit="10" x1="104.3" y1="229.5" x2="104.3" y2="231.7"/>
<line fill="none" stroke="#5C6987" stroke-miterlimit="10" x1="176.3" y1="266" x2="176.3" y2="218.7"/>
<path fill="none" stroke="#5C6987" stroke-miterlimit="10" d="M176.3,216.6L176.3,216.6c-3,0-5.4-2.4-5.4-5.4l0,0
	c0-3,2.4-5.4,5.4-5.4h0c3,0,5.4,2.4,5.4,5.4l0,0C181.8,214.2,179.3,216.6,176.3,216.6z"/>
<polyline fill="none" stroke="#5C6987" stroke-miterlimit="10" points="173.7,216.6 173.7,218.7 179.3,218.7 179.3,215.7 "/>
<line fill="none" stroke="#FFFFFF" stroke-miterlimit="10" x1="96.9" y1="211.2" x2="100.8" y2="211.2"/>
<g>
	<polyline fill="none" stroke="#FFFFFF" stroke-miterlimit="10" points="93,208.3 88.9,208.3 88.9,211.4 93,211.4 93,214.2 
		88.5,214.2 	"/>
	<polyline fill="none" stroke="#FFFFFF" stroke-miterlimit="10" points="96,215.2 96,208.3 100,208.3 100,215.2 	"/>
	<polyline fill="none" stroke="#FFFFFF" stroke-miterlimit="10" points="103.2,215.2 103.2,208.3 107.1,208.3 107.1,211.1 
		103.2,211.1 	"/>
	<line fill="none" stroke="#FFFFFF" stroke-miterlimit="10" x1="106.3" y1="210.4" x2="106.3" y2="215.2"/>
	<line fill="none" stroke="#FFFFFF" stroke-miterlimit="10" x1="110.1" y1="207.4" x2="110.1" y2="215.2"/>
</g>
<line fill="none" stroke="#FFFFFF" stroke-miterlimit="10" x1="111.9" y1="211.5" x2="115.9" y2="211.5"/>
<g>
	<polyline fill="none" stroke="#FFFFFF" stroke-miterlimit="10" points="122.6,208.2 118.4,208.2 118.4,211.3 122.6,211.3 
		122.6,214.1 118.1,214.1 	"/>
	<polyline fill="none" stroke="#FFFFFF" stroke-miterlimit="10" points="125.6,215.1 125.6,208.2 129.5,208.2 129.5,215.1 	"/>
	<polyline fill="none" stroke="#FFFFFF" stroke-miterlimit="10" points="132.8,215.1 132.8,208.2 136.7,208.2 136.7,211 132.8,211 	
		"/>
	<line fill="none" stroke="#FFFFFF" stroke-miterlimit="10" x1="135.9" y1="210.2" x2="135.9" y2="215.1"/>
	<line fill="none" stroke="#FFFFFF" stroke-miterlimit="10" x1="139.7" y1="207.3" x2="139.7" y2="215.1"/>
</g>
<line fill="none" stroke="#FFFFFF" stroke-miterlimit="10" x1="125.6" y1="210.9" x2="129.5" y2="210.9"/>
<line fill="none" stroke="#B2D8F7" stroke-miterlimit="10" x1="219.4" y1="162.5" x2="224.7" y2="162.5"/>
<polyline fill="none" stroke="#5C6987" stroke-miterlimit="10" points="231.6,191.8 231.6,175.3 231.6,212.9 "/>
<line fill="none" stroke="#5C6987" stroke-miterlimit="10" x1="491.9" y1="267" x2="491.9" y2="219.6"/>
<path fill="none" stroke="#5C6987" stroke-miterlimit="10" d="M491.9,217.6L491.9,217.6c-3,0-5.4-2.4-5.4-5.4v0c0-3,2.4-5.4,5.4-5.4
	l0,0c3,0,5.4,2.4,5.4,5.4v0C497.3,215.2,494.8,217.6,491.9,217.6z"/>
<polyline fill="none" stroke="#5C6987" stroke-miterlimit="10" points="489.2,217.6 489.2,219.6 494.9,219.6 494.9,216.7 "/>
<path fill="none" stroke="#5C6987" stroke-miterlimit="10" d="M71.9,232.3c-5.1,1.4-10.2,3.1-15,5.2c-0.9,0.4-1.8,0.8-2.6,1.2
	c-0.3,0.1-0.6,0.3-1,0.5c-2.1,1-4.2,2.1-6.2,3.3c-3.5,2-6.8,4.2-10,6.7c-6,4.7-11.6,10.3-16.5,16.9h15.2"/>
<path fill="none" stroke="#5C6987" stroke-miterlimit="10" d="M187.5,239.2c-8.8-2.6-19.7-5.3-31.8-7.6"/>
<path fill="none" stroke="#5C6987" stroke-miterlimit="10" d="M209,246.4c0,0-5.6-2.2-14.9-5.2"/>
<path fill="none" stroke="#5C6987" stroke-miterlimit="10" d="M318.1,242.9"/>
<path fill="none" stroke="#5C6987" stroke-miterlimit="10" d="M434.6,236.9c-1.1,0-2.2,0-3.3,0"/>
<path fill="none" stroke="#5C6987" stroke-miterlimit="10" d="M45.6,266h26.2h9.3h10h59h5.5h23.8h283.1h61.3
	c-15.1-15.3-35.6-23.2-57.5-26.7"/>
<path fill="none" stroke="#5C6987" stroke-miterlimit="10" d="M459.7,238.3c-5.7-0.7-11.5-1.1-17.2-1.3"/>
<path fill="none" stroke="#5C6987" stroke-miterlimit="10" d="M420.5,237.3c-1.7,0.1-3.4,0.2-5.1,0.3"/>
<path fill="none" stroke="#5C6987" stroke-miterlimit="10" d="M405.4,238.6c-1.7,0.2-3.3,0.4-5,0.6"/>
<rect x="454.2" y="237.8" transform="matrix(0.7071 0.7071 -0.7071 0.7071 307.2988 -254.0298)" fill="#FFE8A0" width="12.3" height="12.3"/>
<path fill="none" stroke="#5C6987" stroke-miterlimit="10" d="M374.3,243.4c-18.2,3.7-30.3,7.5-30.3,7.5"/>
<rect x="457" y="237.8" transform="matrix(0.7071 0.7071 -0.7071 0.7071 307.5209 -255.8104)" fill="none" stroke="#5C6987" stroke-miterlimit="10" width="11.1" height="11.1"/>
<line fill="none" stroke="#5C6987" stroke-miterlimit="10" x1="462.6" y1="267.1" x2="462.6" y2="240.9"/>
<polyline fill="none" stroke="#5C6987" stroke-miterlimit="10" points="458.5,243 462.6,247 466.6,242.9 "/>
<rect x="434.1" y="198" transform="matrix(0.7071 0.7071 -0.7071 0.7071 279.3213 -253.9704)" fill="#FFE8A0" width="24.4" height="24.4"/>
<rect x="436.6" y="197.5" transform="matrix(0.7071 0.7071 -0.7071 0.7071 280.2238 -256.1493)" fill="none" stroke="#5C6987" stroke-miterlimit="10" width="25.5" height="25.5"/>
<line fill="none" stroke="#5C6987" stroke-miterlimit="10" x1="449.3" y1="267.1" x2="449.3" y2="209.2"/>
<polyline fill="none" stroke="#5C6987" stroke-miterlimit="10" points="442.5,212.7 449.3,219.5 456.2,212.6 "/>
<rect x="42.4" y="219" transform="matrix(0.7071 0.7071 -0.7071 0.7071 176.1637 30.5134)" fill="#FFE8A0" width="17.8" height="17.8"/>
<polygon fill="none" stroke="#5C6987" stroke-miterlimit="10" points="66.4,227.9 66,228.3 56.8,237.5 54.2,240.1 53.2,239.2 
	41.9,227.9 47,222.8 54.2,215.7 63.8,225.3 "/>
<line fill="none" stroke="#5C6987" stroke-miterlimit="10" x1="54.2" y1="264.9" x2="54.2" y2="226.7"/>
<polyline fill="none" stroke="#5C6987" stroke-miterlimit="10" points="48.3,228.8 54.2,234.6 60.1,228.7 "/>
<rect x="183" y="229.5" transform="matrix(0.7071 0.7071 -0.7071 0.7071 221.5786 -64.5595)" fill="#FFE8A0" width="11.4" height="11.4"/>
<line fill="none" stroke="#5C6987" stroke-miterlimit="10" x1="191.8" y1="255" x2="191.8" y2="234.9"/>
<rect x="186" y="229.5" transform="matrix(0.7071 0.7071 -0.7071 0.7071 222.5868 -66.704)" fill="none" stroke="#5C6987" stroke-miterlimit="10" width="11.6" height="11.6"/>
<polyline fill="none" stroke="#5C6987" stroke-miterlimit="10" points="188.7,236.5 191.8,239.6 194.9,236.5 "/>
<line fill="none" stroke="#5C6987" stroke-miterlimit="10" x1="231.8" y1="212.9" x2="231.8" y2="238.8"/>
<line fill="none" stroke="#5C6987" stroke-miterlimit="10" x1="302.9" y1="213.4" x2="302.9" y2="239.3"/>
<line fill="none" stroke="#5C6987" stroke-miterlimit="10" x1="248.7" y1="212.2" x2="248.7" y2="238.1"/>
<line fill="none" stroke="#5C6987" stroke-miterlimit="10" x1="274.2" y1="212.2" x2="274.2" y2="236.5"/>
<polygon fill="#F78690" points="158.9,227.3 149.7,217.7 69.6,217.7 55.5,228.5 "/>
<polyline fill="none" stroke="#5C6987" stroke-miterlimit="10" points="79.7,212.9 63.8,225.3 59.8,228.3 66,228.3 71.9,228.3 
	81.2,228.3 91.2,228.3 148.3,228.3 150.2,228.3 155.7,228.3 166.3,228.3 150.2,214.5 148.3,212.9 "/>
<rect x="79.7" y="204.1" fill="none" stroke="#5C6987" stroke-miterlimit="10" width="68.7" height="14.6"/>
<rect x="373.2" y="234.7" fill="#F78690" width="25.8" height="15.1"/>
<polyline fill="none" stroke="#5C6987" stroke-miterlimit="10" points="400.4,233.6 400.4,239.2 400.4,243.5 400.4,248.1 
	374.3,248.1 374.3,247.5 374.3,233.6 "/>
<line fill="none" stroke="#5C6987" stroke-miterlimit="10" x1="382.8" y1="236.2" x2="377.4" y2="241.6"/>
<rect x="402.9" y="234.9" fill="#FFE8A0" width="10.7" height="15.1"/>
<polyline fill="none" stroke="#5C6987" stroke-miterlimit="10" points="415.4,233.6 415.4,237.7 415.4,241.9 415.4,248.4 
	405.4,248.4 405.4,242.9 405.4,238.6 405.4,233.6 "/>
<line fill="none" stroke="#5C6987" stroke-miterlimit="10" x1="413.6" y1="242.5" x2="410.8" y2="245.4"/>
<rect x="417.9" y="235.2" fill="#B2D8F7" width="11.8" height="14.6"/>
<polyline fill="none" stroke="#5C6987" stroke-miterlimit="10" points="420.5,234.1 420.5,237.3 420.5,241.5 420.5,248.4 
	424.5,248.4 424.5,246.8 424.5,241.2 424.5,239.1 426.9,239.1 426.9,241 426.9,248.4 431.3,248.4 431.3,246.8 431.3,240.8 
	431.3,236.9 431.3,234.1 423,234.1 "/>
<line fill="none" stroke="#5C6987" stroke-miterlimit="10" x1="425.9" y1="237.5" x2="425.9" y2="235"/>
<line fill="none" stroke="#5C6987" stroke-miterlimit="10" x1="421.3" y1="246.8" x2="424.5" y2="246.8"/>
<line fill="none" stroke="#5C6987" stroke-miterlimit="10" x1="428.1" y1="246.8" x2="431.3" y2="246.8"/>
<path fill="none" d="M279.7,6.5"/>
<line display="none" fill="none" stroke="#00AEEF" stroke-miterlimit="10" x1="278.8" y1="30" x2="278.8" y2="512"/>
</svg>
