<?xml version="1.0" encoding="utf-8"?>
<!-- Generator: Adobe Illustrator 18.1.1, SVG Export Plug-In . SVG Version: 6.00 Build 0)  -->
<svg version="1.1" id="Layer_1" xmlns="http://www.w3.org/2000/svg" xmlns:xlink="http://www.w3.org/1999/xlink" x="0px" y="0px"
	 viewBox="0 0 99 103.3" enable-background="new 0 0 99 103.3" xml:space="preserve">
<circle display="none" opacity="0.2" fill="#F78690" cx="33.7" cy="60.6" r="46.5"/>
<circle opacity="0.5" fill="#F1F2F2" cx="46" cy="56.9" r="41.4"/>
<circle fill="none" stroke="#D3D3D3" stroke-width="3" stroke-miterlimit="10" cx="53.8" cy="50.2" r="41.4"/>
<circle display="none" fill="none" stroke="#D3D3D3" stroke-width="5" stroke-miterlimit="10" cx="54.8" cy="32.7" r="11.9"/>
<path display="none" fill="none" stroke="#D3D3D3" stroke-width="5" stroke-miterlimit="10" d="M30,65.6
	c5.8-6.7,14.3-10.9,23.9-10.9c14.6,0,26.9,9.9,30.6,23.3"/>
<circle fill="none" stroke="#D3D3D3" stroke-width="3" stroke-miterlimit="10" cx="54.9" cy="56.5" r="20.1"/>
<path fill="none" stroke="#D3D3D3" stroke-width="3" stroke-miterlimit="10" d="M41.3,33c1.5-6,7-10.5,13.5-10.5
	c7.7,0,13.9,6.2,13.9,13.9c0,1.7-0.3,3.3-0.8,4.8"/>
<circle fill="none" stroke="#D3D3D3" stroke-width="3" stroke-miterlimit="10" cx="54.8" cy="60.9" r="4.5"/>
<circle fill="none" stroke="#D3D3D3" stroke-width="3" stroke-miterlimit="10" cx="55" cy="48.4" r="1.7"/>
<line display="none" fill="none" stroke="#EF5968" stroke-width="9" stroke-miterlimit="10" x1="8.7" y1="10.5" x2="87.3" y2="89.2"/>
<line display="none" fill="none" stroke="#EF5968" stroke-width="9" stroke-miterlimit="10" x1="87.3" y1="10.5" x2="61.3" y2="36.6"/>
<line display="none" fill="none" stroke="#EF5968" stroke-width="9" stroke-miterlimit="10" x1="8.7" y1="89.2" x2="47.3" y2="50.5"/>
<path display="none" fill="none" stroke="#7FDE95" stroke-width="5" stroke-miterlimit="10" d="M85.3,41.4C86.4,45.1,87,49,87,53.1
	C87,75.7,68.7,94,46.1,94S5.2,75.7,5.2,53.1s18.3-40.9,40.9-40.9c8.7,0,16.7,2.7,23.3,7.3"/>
<polyline display="none" fill="none" stroke="#7FDE95" stroke-width="5" stroke-miterlimit="10" points="21,47.3 42.1,68.4 
	97.3,13.3 "/>
<line display="none" fill="none" stroke="#D3D3D3" stroke-width="3" stroke-miterlimit="10" x1="37.1" y1="28.2" x2="73.2" y2="64.3"/>
<line display="none" fill="none" stroke="#D3D3D3" stroke-width="3" stroke-miterlimit="10" x1="73.2" y1="28.2" x2="61.2" y2="40.2"/>
<line display="none" fill="none" stroke="#D3D3D3" stroke-width="3" stroke-miterlimit="10" x1="37.1" y1="64.3" x2="54.9" y2="46.6"/>
<path display="none" fill="none" stroke="#D3D3D3" stroke-width="3" stroke-miterlimit="10" d="M89.4,28.5
	c2.8,5.3,4.3,11.4,4.3,17.8c0,21.4-17.3,38.7-38.7,38.7S16.3,67.6,16.3,46.2S33.6,7.5,55,7.5c5.5,0,10.8,1.2,15.6,3.3"/>
</svg>
