<?xml version="1.0" encoding="utf-8"?>
<!-- Generator: Adobe Illustrator 18.1.1, SVG Export Plug-In . SVG Version: 6.00 Build 0)  -->
<svg version="1.1" id="Layer_1" xmlns="http://www.w3.org/2000/svg" xmlns:xlink="http://www.w3.org/1999/xlink" x="0px" y="0px"
	 viewBox="0 0 219 240" enable-background="new 0 0 219 240" xml:space="preserve">
<path opacity="0.5" fill="#00AEEF" d="M152.7,216.6l-66.4-37.8c8.2,3.9,17.9,3.6,25.9-1l23.2-13.4l22.5,47.3
	C159.5,215.1,155.8,218.4,152.7,216.6z"/>
<path opacity="0.5" fill="#00AEEF" d="M30.1,40.5l49.2-28.4c8.6-5,19.2-5,27.8,0l49.2,28.4c8.6,5,13.9,14.1,13.9,24.1v56.8
	c0,9.9-5.3,19.1-13.9,24.1L107,173.8c-8.6,5-19.2,5-27.8,0l-49.2-28.4c-8.6-5-13.9-14.1-13.9-24.1V64.6
	C16.2,54.7,21.5,45.5,30.1,40.5z"/>
<path fill="#626262" d="M177.3,45.6l-52.8-30.5c-7.7-4.5-17.2-4.5-24.9,0L46.8,45.6C39.1,50,34.3,58.3,34.3,67.2v61
	c0,8.9,4.8,17.1,12.5,21.6l52.8,30.5c7.1,4.1,15.7,4.4,23.1,1L101,168.6l-45.5-26.3c-6.6-3.8-10.7-10.9-10.7-18.6V71.2
	c0-7.7,4.1-14.8,10.7-18.6L101,26.4c6.7-3.8,14.8-3.8,21.5,0l45.5,26.3c6.6,3.8,10.7,10.9,10.7,18.6v52.5c0,7.7-4.1,14.8-10.7,18.6
	l-9.8,5.6l-10.8,6.2l10.4,6c1.2-0.2,2.4-0.5,3.5-1.1c0,0,0,0,0,0l8-4.6l8-4.6c7.7-4.5,12.5-12.7,12.5-21.6v-61
	C189.8,58.3,185,50,177.3,45.6z"/>
<path display="none" fill="none" stroke="#231F20" stroke-width="10" stroke-miterlimit="10" d="M168.9,132.8l-51.2,29.6
	c-6.9,4-15.5,4-22.4,0L44,132.8c-6.9-4-11.2-11.4-11.2-19.4V54.3c0-8,4.3-15.4,11.2-19.4L95.2,5.3c6.9-4,15.5-4,22.4,0l51.2,29.6
	c6.9,4,11.2,11.4,11.2,19.4v59.2C180.1,121.4,175.8,128.8,168.9,132.8z"/>
<path fill="#626262" d="M170.1,85.2v12.1H170c-0.6-6.1-4.1-11.6-9.5-14.7l-38.5-22.3c-6-3.4-13.3-3.4-19.3,0L64.1,82.6
	c-5.4,3.1-8.9,8.6-9.5,14.7h-0.1V85.2c0-6.9,3.7-13.2,9.6-16.7l38.5-22.3c6-3.5,13.3-3.5,19.3,0l38.5,22.3
	C166.4,72,170.1,78.4,170.1,85.2z"/>
<polygon fill="#626262" points="92.7,163.8 140.8,191.7 141.6,204.4 86.3,172.5 "/>
<path fill="#626262" d="M169.3,154.4l-8,4.6c0,0,0,0,0,0c-1.1,0.6-2.3,1-3.5,1.1l-10.4-6l-28.5-16.5c-7.7-4.5-12.5-12.7-12.5-21.6
	v-61c0-1.9,0.2-3.7,0.6-5.5h12.1c-1.5,2.9-2.3,6.2-2.3,9.6v52.5c0,7.7,4.1,14.8,10.7,18.6l30.5,17.6L169.3,154.4z"/>
</svg>
