<?xml version="1.0" encoding="utf-8"?>
<!-- Generator: Adobe Illustrator 18.1.1, SVG Export Plug-In . SVG Version: 6.00 Build 0)  -->
<svg version="1.1" id="Layer_1" xmlns="http://www.w3.org/2000/svg" xmlns:xlink="http://www.w3.org/1999/xlink" x="0px" y="0px"
	 viewBox="0 0 219 240" enable-background="new 0 0 219 240" xml:space="preserve">
<path display="none" fill="#85D7EA" d="M40.7,45.5l55.5-32.1c9.7-5.6,21.7-5.6,31.4,0l55.5,32.1c9.7,5.6,15.7,16,15.7,27.2v64.1
	c0,11.2-6,21.6-15.7,27.2l-55.5,32.1c-9.7,5.6-21.7,5.6-31.4,0L40.7,164C31,158.4,25,148,25,136.8V72.7C25,61.5,31,51.1,40.7,45.5z"
	/>
<path display="none" fill="#33BCDC" d="M115.4,16.5c0,0-103.3,83.6-6.2,181.3l-70.6-40.1c0,0-6.2-11.3-7.3-14.1s-3.4-40.1-3.4-40.1
	s-0.6-28.2,0-29.3c0.6-1.2,5.6-15.8,5.6-15.8l28.8-19.2c0,0,23.1-18.1,26.8-18.1s22.8-4.5,22.8-4.5H115.4z"/>
<path fill="#33BCDC" stroke="#33BCDC" stroke-width="5" stroke-miterlimit="10" d="M185.8,45.9l-59.6-34.4c-8.7-5-19.4-5-28.2,0
	L38.3,45.9c-8.7,5-14.1,14.3-14.1,24.4v68.9c0,10.1,5.4,19.4,14.1,24.4L98,198c8,4.6,17.8,5,26.1,1.1l-24.5-14.2l-51.4-29.7
	c-7.5-4.3-12.1-12.3-12.1-21V74.9c0-8.7,4.6-16.7,12.1-21l51.4-29.6c7.5-4.3,16.7-4.3,24.3,0l51.4,29.6c7.5,4.3,12.1,12.3,12.1,21
	v59.3c0,8.7-4.6,16.7-12.1,21l-11,6.4l-12.2,7l11.7,6.8c1.3-0.2,2.7-0.6,3.9-1.3c0,0,0,0,0,0l9-5.2l9.1-5.2
	c8.7-5,14.1-14.3,14.1-24.4V70.3C199.9,60.3,194.5,51,185.8,45.9z"/>
<path display="none" fill="none" stroke="#231F20" stroke-width="10" stroke-miterlimit="10" d="M168.9,132.8l-51.2,29.6
	c-6.9,4-15.5,4-22.4,0L44,132.8c-6.9-4-11.2-11.4-11.2-19.4V54.3c0-8,4.3-15.4,11.2-19.4L95.2,5.3c6.9-4,15.5-4,22.4,0l51.2,29.6
	c6.9,4,11.2,11.4,11.2,19.4v59.2C180.1,121.4,175.8,128.8,168.9,132.8z"/>
<path fill="#33BCDC" stroke="#33BCDC" stroke-width="5" stroke-miterlimit="10" d="M171.3,100.5V113h-0.1
	c-0.6-6.3-4.3-11.9-9.8-15.1l-39.6-22.9c-6.1-3.5-13.7-3.5-19.8,0L62.3,97.8c-5.5,3.2-9.2,8.9-9.8,15.1h-0.1v-12.4
	c0-7.1,3.8-13.6,9.9-17.2L102,60.5c6.1-3.5,13.7-3.5,19.8,0l39.6,22.9C167.6,86.9,171.3,93.5,171.3,100.5z"/>
<path fill="#33BCDC" stroke="#33BCDC" stroke-width="5" stroke-miterlimit="10" d="M176.7,168.8l-9,5.2c0,0,0,0,0,0
	c-1.2,0.7-2.6,1.1-3.9,1.3l-11.7-6.8L119.8,150c-8.7-5-14.1-14.3-14.1-24.4V60h11.8c0,0.5,0,0.9,0,1.4v59.3c0,8.7,4.6,16.7,12.1,21
	l34.5,19.9L176.7,168.8z"/>
<path fill="#33BCDC" d="M89.1,192.9c0,0,22.8,20.7,22.8,41.7l0.2-40.8L89.1,192.9z"/>
<path fill="#33BCDC" d="M134.8,192.9c0,0-22.8,20.7-22.8,41.7l-0.2-40.8L134.8,192.9z"/>
<path fill="#33BCDC" stroke="#33BCDC" stroke-width="5" stroke-miterlimit="10" d="M99.9,199.1c8.3,3.9,18,3.5,26.1-1.1l47.3-27.3
	v-5.4h-14.9l-33.9,19.6L99.9,199.1z"/>
</svg>
